<?xml version="1.0" encoding="iso-8859-1"?>
<!-- Generator: Adobe Illustrator 13.0.0, SVG Export Plug-In . SVG Version: 6.00 Build 14948)  -->
<!DOCTYPE svg PUBLIC "-//W3C//DTD SVG 1.1//EN" "http://www.w3.org/Graphics/SVG/1.1/DTD/svg11.dtd">
<svg version="1.1" id="Layer_1" xmlns="http://www.w3.org/2000/svg" xmlns:xlink="http://www.w3.org/1999/xlink" x="0px" y="0px"
	 width="100px" height="100px" viewBox="0 0 100 100" enable-background="new 0 0 100 100" xml:space="preserve">
<g>
	<g>
		<radialGradient id="SVGID_1_" cx="49.9067" cy="26.7822" r="61.797" gradientUnits="userSpaceOnUse">
			<stop  offset="0" style="stop-color:#FFFFFF"/>
			<stop  offset="0.012" style="stop-color:#FCF4EA"/>
			<stop  offset="0.0401" style="stop-color:#F5DDBE"/>
			<stop  offset="0.0703" style="stop-color:#EFC898"/>
			<stop  offset="0.1023" style="stop-color:#EAB777"/>
			<stop  offset="0.1366" style="stop-color:#E6A95D"/>
			<stop  offset="0.1741" style="stop-color:#E39E48"/>
			<stop  offset="0.2164" style="stop-color:#E1973A"/>
			<stop  offset="0.2675" style="stop-color:#DF9232"/>
			<stop  offset="0.3515" style="stop-color:#DF912F"/>
			<stop  offset="0.8242" style="stop-color:#A24725"/>
			<stop  offset="1" style="stop-color:#A24725"/>
		</radialGradient>
		<path fill="url(#SVGID_1_)" d="M48.663,87.086C24.288,73.67,15.244,50.974,19.123,20.468c12.582,1.915,22.189-0.018,29.54-4.873
			c7.352,4.855,16.959,6.787,29.54,4.873C82.082,50.974,73.039,73.67,48.663,87.086z"/>
		<path fill="#272525" d="M47.644,88.94C26.233,77.221,16.07,58.031,16.145,33.49l0,0c0-4.268,0.297-8.702,0.883-13.294l0,0
			l0.271-2.151l2.143,0.332c3.14,0.482,6.079,0.7,8.816,0.7l0,0c7.906,0,14.151-1.889,19.241-5.238l0,0l1.163-0.77l1.164,0.77
			c5.09,3.349,11.331,5.238,19.237,5.238l0,0c2.737,0,5.676-0.228,8.824-0.7l0,0l2.135-0.332l0.275,2.151
			c0.585,4.592,0.879,9.026,0.879,13.294l0,0c0.075,24.542-10.08,43.731-31.495,55.451l0,0l-1.019,0.56L47.644,88.94L47.644,88.94z
			 M48.663,87.086l1.019-1.845L48.663,87.086L48.663,87.086z M20.365,33.49c0.075,23.046,8.886,40.004,28.298,51.174l0,0
			c19.412-11.17,28.224-28.128,28.294-51.174l0,0c0-3.419-0.202-6.97-0.601-10.643l0,0c-2.54,0.305-4.968,0.463-7.293,0.463l0,0
			c-8.011,0-14.79-1.828-20.4-5.213l0,0c-5.606,3.376-12.389,5.213-20.404,5.213l0,0c-2.323,0-4.754-0.158-7.294-0.463l0,0
			C20.566,26.52,20.365,30.071,20.365,33.49L20.365,33.49z"/>
	</g>
	<radialGradient id="SVGID_2_" cx="49.9067" cy="26.7822" r="61.797" gradientUnits="userSpaceOnUse">
		<stop  offset="0" style="stop-color:#FFFFFF"/>
		<stop  offset="0.012" style="stop-color:#FCF4EA"/>
		<stop  offset="0.0401" style="stop-color:#F5DDBE"/>
		<stop  offset="0.0703" style="stop-color:#EFC898"/>
		<stop  offset="0.1023" style="stop-color:#EAB777"/>
		<stop  offset="0.1366" style="stop-color:#E6A95D"/>
		<stop  offset="0.1741" style="stop-color:#E39E48"/>
		<stop  offset="0.2164" style="stop-color:#E1973A"/>
		<stop  offset="0.2675" style="stop-color:#DF9232"/>
		<stop  offset="0.3515" style="stop-color:#DF912F"/>
		<stop  offset="0.8242" style="stop-color:#A24725"/>
		<stop  offset="1" style="stop-color:#A24725"/>
	</radialGradient>
	<path fill="url(#SVGID_2_)" d="M48.663,87.086C24.288,73.67,15.244,50.974,19.123,20.468c12.582,1.915,22.189-0.018,29.54-4.873
		c7.352,4.855,16.959,6.787,29.54,4.873C82.082,50.974,73.039,73.67,48.663,87.086z"/>
	<defs>
		<filter id="Adobe_OpacityMaskFilter" filterUnits="userSpaceOnUse" x="18.256" y="16.375" width="60.612" height="70.711">
			<feFlood  style="flood-color:white;flood-opacity:1" result="back"/>
			<feBlend  in="SourceGraphic" in2="back" mode="normal"/>
		</filter>
	</defs>
	<mask maskUnits="userSpaceOnUse" x="18.256" y="16.375" width="60.612" height="70.711" id="SVGID_3_">
		<g filter="url(#Adobe_OpacityMaskFilter)">
			<defs>
				<filter id="Adobe_OpacityMaskFilter_1_" filterUnits="userSpaceOnUse" x="18.256" y="16.375" width="60.612" height="70.711">
					<feFlood  style="flood-color:white;flood-opacity:1" result="back"/>
					<feBlend  in="SourceGraphic" in2="back" mode="normal"/>
				</filter>
			</defs>
			<mask maskUnits="userSpaceOnUse" x="18.256" y="16.375" width="60.612" height="70.711" id="SVGID_3_">
				<g filter="url(#Adobe_OpacityMaskFilter_1_)">
				</g>
			</mask>
			<linearGradient id="SVGID_4_" gradientUnits="userSpaceOnUse" x1="54.8984" y1="12.1392" x2="49.5149" y2="31.0584">
				<stop  offset="0" style="stop-color:#FFFFFF"/>
				<stop  offset="0.0524" style="stop-color:#E8E8E8"/>
				<stop  offset="0.2031" style="stop-color:#ABABAB"/>
				<stop  offset="0.3529" style="stop-color:#777777"/>
				<stop  offset="0.4983" style="stop-color:#4C4C4C"/>
				<stop  offset="0.6383" style="stop-color:#2B2B2B"/>
				<stop  offset="0.7716" style="stop-color:#131313"/>
				<stop  offset="0.8952" style="stop-color:#050505"/>
				<stop  offset="1" style="stop-color:#000000"/>
			</linearGradient>
			<path mask="url(#SVGID_3_)" fill="url(#SVGID_4_)" d="M48.562,87.086C24.271,73.81,15.253,51.367,19.119,21.185
				c12.542,1.907,22.119-0.009,29.444-4.81c7.326,4.801,16.902,6.717,29.444,4.81C81.868,51.367,72.858,73.81,48.562,87.086z"/>
		</g>
	</mask>
	<linearGradient id="SVGID_5_" gradientUnits="userSpaceOnUse" x1="54.8984" y1="12.1392" x2="49.5149" y2="31.0584">
		<stop  offset="0" style="stop-color:#FFFFFF"/>
		<stop  offset="1" style="stop-color:#FFFFFF"/>
	</linearGradient>
	<path fill="url(#SVGID_5_)" d="M48.562,87.086C24.271,73.81,15.253,51.367,19.119,21.185c12.542,1.907,22.119-0.009,29.444-4.81
		c7.326,4.801,16.902,6.717,29.444,4.81C81.868,51.367,72.858,73.81,48.562,87.086z"/>
	<linearGradient id="SVGID_6_" gradientUnits="userSpaceOnUse" x1="48.6636" y1="17.7002" x2="48.6636" y2="84.0886">
		<stop  offset="0" style="stop-color:#FFFFFF"/>
		<stop  offset="0.0112" style="stop-color:#FFFFFF"/>
		<stop  offset="0.2" style="stop-color:#000000"/>
		<stop  offset="0.4" style="stop-color:#FFFFFF"/>
		<stop  offset="0.6" style="stop-color:#000000"/>
		<stop  offset="0.8" style="stop-color:#FFFFFF"/>
		<stop  offset="1" style="stop-color:#000000"/>
	</linearGradient>
	<path fill="url(#SVGID_6_)" d="M48.663,82.521C27.401,70.818,19.517,51.018,22.897,24.412c10.977,1.679,19.355-0.008,25.766-4.241
		c6.411,4.233,14.79,5.92,25.767,4.241C77.814,51.018,69.925,70.818,48.663,82.521z"/>
	<linearGradient id="SVGID_7_" gradientUnits="userSpaceOnUse" x1="48.665" y1="94.5928" x2="48.665" y2="9.5313">
		<stop  offset="0" style="stop-color:#FFFFFF"/>
		<stop  offset="0.1292" style="stop-color:#939393"/>
		<stop  offset="0.2921" style="stop-color:#939393"/>
		<stop  offset="0.6404" style="stop-color:#BBBBBB"/>
		<stop  offset="0.8034" style="stop-color:#D6D6D6"/>
		<stop  offset="1" style="stop-color:#919395"/>
	</linearGradient>
	<path fill="url(#SVGID_7_)" d="M48.663,81.025C28.425,69.883,20.912,51.034,24.134,25.698c10.448,1.6,18.428,0,24.529-4.033
		c6.105,4.033,14.082,5.633,24.533,4.033C76.415,51.034,68.905,69.883,48.663,81.025z"/>
	<defs>
		<filter id="Adobe_OpacityMaskFilter_2_" filterUnits="userSpaceOnUse" x="23.415" y="22.514" width="50.499" height="58.511">
			<feFlood  style="flood-color:white;flood-opacity:1" result="back"/>
			<feBlend  in="SourceGraphic" in2="back" mode="normal"/>
		</filter>
	</defs>
	<mask maskUnits="userSpaceOnUse" x="23.415" y="22.514" width="50.499" height="58.511" id="SVGID_8_">
		<g filter="url(#Adobe_OpacityMaskFilter_2_)">
			<defs>
				<filter id="Adobe_OpacityMaskFilter_3_" filterUnits="userSpaceOnUse" x="23.415" y="22.514" width="50.499" height="58.511">
					<feFlood  style="flood-color:white;flood-opacity:1" result="back"/>
					<feBlend  in="SourceGraphic" in2="back" mode="normal"/>
				</filter>
			</defs>
			<mask maskUnits="userSpaceOnUse" x="23.415" y="22.514" width="50.499" height="58.511" id="SVGID_8_">
				<g filter="url(#Adobe_OpacityMaskFilter_3_)">
				</g>
			</mask>
			<linearGradient id="SVGID_9_" gradientUnits="userSpaceOnUse" x1="51.0205" y1="22.1245" x2="49.0497" y2="34.308">
				<stop  offset="0" style="stop-color:#FFFFFF"/>
				<stop  offset="0.0524" style="stop-color:#E8E8E8"/>
				<stop  offset="0.2031" style="stop-color:#ABABAB"/>
				<stop  offset="0.3529" style="stop-color:#777777"/>
				<stop  offset="0.4983" style="stop-color:#4C4C4C"/>
				<stop  offset="0.6383" style="stop-color:#2B2B2B"/>
				<stop  offset="0.7716" style="stop-color:#131313"/>
				<stop  offset="0.8952" style="stop-color:#050505"/>
				<stop  offset="1" style="stop-color:#000000"/>
			</linearGradient>
			<path mask="url(#SVGID_8_)" fill="url(#SVGID_9_)" d="M48.663,81.025C28.425,70.041,20.912,51.464,24.134,26.493
				c10.448,1.574,18.428,0,24.529-3.979c6.105,3.979,14.082,5.553,24.533,3.979C76.415,51.464,68.905,70.041,48.663,81.025z"/>
		</g>
	</mask>
	<linearGradient id="SVGID_10_" gradientUnits="userSpaceOnUse" x1="51.0205" y1="22.1245" x2="49.0497" y2="34.308">
		<stop  offset="0" style="stop-color:#FFFFFF"/>
		<stop  offset="1" style="stop-color:#FFFFFF"/>
	</linearGradient>
	<path fill="url(#SVGID_10_)" d="M48.663,81.025C28.425,70.041,20.912,51.464,24.134,26.493c10.448,1.574,18.428,0,24.529-3.979
		c6.105,3.979,14.082,5.553,24.533,3.979C76.415,51.464,68.905,70.041,48.663,81.025z"/>
	<g>
		<path fill="#272525" d="M43.853,55.574c-0.232,0.271-0.455,0.543-0.687,0.83c-1.176-2.326-2.724-4.285-4.74-5.789
			c-0.849-0.647-1.784-1.19-2.799-1.662c-0.289-0.131-0.582-0.253-0.883-0.375c-0.433,2.082-1.583,3.419-1.863,5.65
			c1.006,0.28,1.889,0.683,2.676,1.163c2.498,1.565,4.084,4.04,5.751,6.411c1.369,0.008,2.747,0.025,4.12,0.035
			c4.758-11.642,14.185-19.898,22.197-27.34C58.362,40.154,50.617,47.361,43.853,55.574z"/>
	</g>
</g>
</svg>
