<?xml version="1.0" encoding="utf-8"?>
<!-- Generator: Adobe Illustrator 16.0.0, SVG Export Plug-In . SVG Version: 6.00 Build 0)  -->
<!DOCTYPE svg PUBLIC "-//W3C//DTD SVG 1.1//EN" "http://www.w3.org/Graphics/SVG/1.1/DTD/svg11.dtd">
<svg version="1.1" id="Layer_1" xmlns="http://www.w3.org/2000/svg" xmlns:xlink="http://www.w3.org/1999/xlink" x="0px" y="0px"
	 width="100px" height="100px" viewBox="0 0 100 100" enable-background="new 0 0 100 100" xml:space="preserve">
<g>
	<circle fill="#F05A28" cx="46.638" cy="27.188" r="3.794"/>
	<path fill="#A6A8AB" d="M89.361,57.177c0,2.095-1.697,3.793-3.795,3.793c-2.09,0-3.79-1.698-3.79-3.793s1.7-3.789,3.79-3.789
		C87.664,53.388,89.361,55.082,89.361,57.177z"/>
	<path fill="#2E3191" d="M18.969,60.97c0,2.097-1.701,3.794-3.797,3.794c-2.091,0-3.791-1.697-3.791-3.794
		c0-2.095,1.7-3.793,3.791-3.793C17.269,57.177,18.969,58.875,18.969,60.97z"/>
	<path fill="#2E3191" d="M41.389,25.539c0,0-62.494,63.164,34.532,51.343C75.921,76.882,0.771,80.771,41.389,25.539z"/>
	<path fill="#A6A8AB" d="M59.119,74.152c3.308,0.472,6.419,0.714,8.997,0.84c15.329-7.048,22.53-22.236-19.727-54.967
		C48.39,20.025,89.555,56.76,59.119,74.152z"/>
	<path fill="#F05A28" d="M67.404,53.388c-0.51-2.963-1.602-5.961-3.034-8.874c-7.337-10.847-18.319-18.808-31.188-1.551
		c-1.357,3.484-2.083,6.705-2.191,9.644C40.145,42.118,53.556,34.442,67.404,53.388z"/>
</g>
</svg>
